<svg width="16" height="19" viewBox="0 0 16 19" fill="none" xmlns="http://www.w3.org/2000/svg">
<path d="M13.0284 10.1041C13.0075 7.70377 14.9356 6.53601 15.0238 6.48162C13.9318 4.84091 12.2393 4.61673 11.6445 4.59889C10.223 4.44471 8.84411 5.47546 8.12001 5.47546C7.38142 5.47546 6.26633 4.61378 5.06451 4.6391C3.51799 4.66365 2.07119 5.58643 1.27767 7.01934C-0.359925 9.94106 0.861423 14.2346 2.43037 16.5962C3.21517 17.7536 4.13227 19.0443 5.33262 18.9988C6.50698 18.9497 6.94565 18.228 8.36282 18.228C9.76697 18.228 10.1789 18.9988 11.4031 18.9698C12.6635 18.9497 13.457 17.808 14.2143 16.6409C15.1213 15.316 15.4856 14.0097 15.5 13.9426C15.4711 13.9322 13.053 12.9804 13.0284 10.1041ZM10.7159 3.0453C11.3475 2.2313 11.7796 1.12384 11.6597 0C10.7455 0.0416865 9.60222 0.651642 8.94386 1.4478C8.36139 2.14936 7.84105 3.29927 7.97548 4.38066C9.00239 4.4596 10.0568 3.84665 10.7159 3.0453Z" fill="black"/>
</svg>
