<svg width="24" height="25" viewBox="0 0 24 25" fill="none" xmlns="http://www.w3.org/2000/svg">
<circle cx="12" cy="12.9922" r="12" fill="black"/>
<path d="M12.621 6.28095C13.5882 5.00621 14.9327 5 14.9327 5C14.9327 5 15.1327 6.19846 14.1719 7.35297C13.146 8.58572 11.9799 8.384 11.9799 8.384C11.9799 8.384 11.761 7.41448 12.621 6.28095ZM12.103 9.22352C12.6005 9.22352 13.5239 8.53958 14.7259 8.53958C16.7949 8.53958 17.6088 10.0118 17.6088 10.0118C17.6088 10.0118 16.0169 10.8257 16.0169 12.8006C16.0169 15.0285 18 15.7963 18 15.7963C18 15.7963 16.6137 19.6981 14.7413 19.6981C13.8813 19.6981 13.2127 19.1186 12.3066 19.1186C11.3831 19.1186 10.4668 19.7197 9.86992 19.7197C8.1601 19.7198 6 16.0185 6 13.0433C6 10.1161 7.82838 8.58059 9.54333 8.58059C10.6582 8.58059 11.5234 9.22352 12.103 9.22352Z" fill="white"/>
</svg>
